PathFileType	4	(X/Y/Z)	Patient4_TMGait_0pt5_01_right_44.trc.trc
DataRate	CameraRate	NumFrames	NumMarkers	Units	OrigDataRate	OrigDataStartFrame	OrigNumFrames
78.212290502793	78.212290502793	7	33	mm	78.212290502793	36	       141
Frame#	Time	L.ASIS			Sacral			L.Shoulder			Chest			R.Shoulder			Neck			R.ASIS			R.Thigh.Superior			R.Thigh.Lateral			R.Thigh.Inferior			R.Patella			L.Thigh.Superior			L.Thigh.Lateral			L.Thigh.Inferior			L.Patella			L.Shank.Superior			L.Shank.Lateral			L.Shank.Inferior			R.Shank.Superior			R.Shank.Lateral			R.Shank.Inferior			R.Heel			R.Midfoot.Superior			R.Midfoot.Lateral			R.Toe			L.Heel			L.Midfoot.Lateral			L.Midfoot.Superior			L.Toe			L.Elbow			L.Wrist			R.Elbow			R.Wrist			
		X1	Y1	Z1	X2	Y2	Z2	X3	Y3	Z3	X4	Y4	Z4	X5	Y5	Z5	X6	Y6	Z6	X7	Y7	Z7	X8	Y8	Z8	X9	Y9	Z9	X10	Y10	Z10	X11	Y11	Z11	X12	Y12	Z12	X13	Y13	Z13	X14	Y14	Z14	X15	Y15	Z15	X16	Y16	Z16	X17	Y17	Z17	X18	Y18	Z18	X19	Y19	Z19	X20	Y20	Z20	X21	Y21	Z21	X22	Y22	Z22	X23	Y23	Z23	X24	Y24	Z24	X25	Y25	Z25	X26	Y26	Z26	X27	Y27	Z27	X28	Y28	Z28	X29	Y29	Z29	X30	Y30	Z30	X31	Y31	Z31	X32	Y32	Z32	X33	Y33	Z33	

36	58.417500000000	891.852298943026	950.744912725821	291.754891321975	678.227898601945	999.716986375420	451.718737791133	849.736051219377	1428.742135124475	268.192761161125	952.266455599899	1359.770896144795	430.065896807889	865.727531144801	1431.417952846789	604.056862182174	847.199146857460	1489.808815613967	419.744201102004	906.834230449232	937.547708325340	568.768600638842	968.815591184457	748.301829826885	537.339343589356	902.328797232996	632.953379887609	599.323474600606	984.921995462122	587.471601921605	518.513421974643	997.785149780359	495.663195250774	527.192062302997	916.142196884543	728.201469764669	320.343460427486	816.751675283918	621.241852387987	259.245371742570	895.070206533286	531.124007551934	316.702316878913	881.940765447710	447.779893196056	316.205329685569	815.726061811577	391.277413113275	313.597298801418	677.764951485392	339.045726033305	269.009884762932	669.125594850245	213.255488143058	330.796317139412	968.093299671570	406.453219588728	535.570952994582	898.282983549250	303.146621093772	598.442580237948	940.942293457313	207.475717319987	537.982088742088	807.195328838155	43.429760038569	511.610761756154	978.280734483105	97.596717869473	548.065938183786	889.806834177949	37.105526890279	586.693056787789	1098.059019462073	43.103561741121	578.324422932701	481.623660244758	132.161219261267	374.014221140516	544.095422431974	89.148860330813	297.375852876029	645.895088454558	112.080587831804	316.898917180177	737.068983634663	33.695105717918	299.417178249204	841.841370420848	1076.637480366842	142.761457099198	1074.795417173339	963.358131961493	123.955723108304	777.469902431820	1095.594295594133	715.439294653365	809.253927732969	835.835910662653	715.661115420876	
37	58.430285714286	892.299733739876	950.957774122291	294.464404914348	678.955629935624	1000.222303910853	454.770401581386	849.762812128852	1429.134253374077	270.168839051924	952.712549855279	1360.349136472048	431.850257349541	866.624818617526	1432.082904491988	605.966779417116	847.381713685590	1490.285264660753	421.779570005163	907.724627190534	938.297609957822	571.271544998460	968.172437157971	747.513537755795	540.415455892345	900.217175172654	632.805175458110	601.616991228663	982.427825463688	586.767188993293	520.754491965355	994.323935498564	494.914101905914	528.964302230487	921.271772384479	730.037353625357	322.742133838763	825.853391935357	620.940676182886	260.542405586621	906.956882091729	532.280978774606	317.576802343141	894.783658207558	447.723645533550	316.082217536044	826.653339117102	391.572352951323	313.613427346134	686.640410149150	344.380475711703	269.465292233379	674.310695011018	218.478437741441	330.311652046658	964.120650605973	405.869718557383	536.982255448847	893.749334429574	302.809860392411	599.472927838426	935.636947322017	207.102511820368	538.548189926654	800.943489860378	43.433925161315	511.716360162398	972.073232689296	97.552179288573	548.264355681129	883.529683370270	37.094233974395	586.880249192493	1091.817655456094	42.826010489888	578.570416802434	484.277061842727	147.239112373724	373.633914816843	543.731615786927	99.999180726297	297.111786681855	646.731534919197	116.106409886318	316.436616613363	731.324695644550	32.479499033032	299.476545799972	839.642450282695	1076.352297062012	146.575866894313	1068.462924468558	954.098582685961	127.120893790765	784.633954827626	1094.686735408371	718.933864137096	829.098787647148	836.748199325390	718.268448349192	
38	58.443071428571	892.440705252749	950.979324846475	297.152507718422	679.429055250783	1000.638271998352	457.782907147970	849.629784392815	1429.261249825709	271.947551516452	953.091590340788	1360.685743096332	433.401185906484	867.607687668527	1432.610290349224	607.682815935254	847.525636362715	1490.584144360932	423.594388920606	908.377695571894	938.837782120344	573.704581721094	967.342172574165	746.675217711009	543.482952811931	897.983722262263	632.569089154020	603.892313549689	979.864320635289	586.044435533908	523.008893651992	990.812384261736	494.133928274305	530.776770272888	926.329707195166	732.048260227064	325.163908262172	835.048891052399	620.885450685285	261.805827205587	918.805491344884	533.878043000801	318.659330759935	907.747564290018	448.177458248258	316.372658942916	837.920396519234	392.236962247773	313.896197047139	696.164812498450	349.957104806686	269.958043594596	680.159912542791	224.130461888633	330.037362334003	960.094948535840	405.242679022813	538.414227629323	889.124077380064	302.431792135262	600.502228900496	930.285703115168	206.699749107578	539.134566796580	794.630209046646	43.430714775490	511.823092977989	965.820162579808	97.464856248104	548.466498750516	877.188235444088	37.058177898438	587.056843229262	1085.516686898235	42.512982585608	578.805172253991	488.103114341819	162.940299249585	373.311170015943	544.346711494494	111.692815311819	296.889748413312	648.187108130850	120.798966672291	316.164286838740	725.867146080091	31.175392811536	299.522864428422	837.477280294977	1075.745960692249	150.347238615325	1061.435057896861	944.086048468432	130.193345351031	791.920033300394	1093.885109038300	722.484891647788	849.612542831376	838.528760855817	720.709216459971	
39	58.455857142857	892.242317725717	950.856708225142	299.814469679021	679.628478074888	1000.960548120805	460.716639949903	849.339670472736	1429.132493103737	273.524405946375	953.389478297160	1360.785388808303	434.721569585106	868.649271498394	1433.011385711975	609.201233150491	847.650874754268	1490.718857888447	425.173595249929	908.787706997047	939.184165435707	576.062320872278	966.375173965066	745.837452108567	546.459011557702	895.719189722216	632.265139859562	606.086980326910	977.310165321560	585.322397173139	525.202812435289	987.334376625557	493.331544286519	532.553586579360	931.213809952174	734.260755045299	327.603740899146	844.173492264373	621.145343407074	263.054787507011	930.430963837248	535.962754813646	319.959127345121	920.665153792363	449.185379633210	317.069727260966	849.350235574141	393.314287180106	314.458267074031	706.159847733676	355.711940589826	270.509637943339	686.577593547938	230.109897246456	329.986486291219	956.086437723080	404.584147899239	539.807955616930	884.477449509257	302.039301787700	601.500450444321	924.927553370681	206.279331036680	539.711479661143	788.269671937173	43.434872154488	511.933730908065	959.531569682559	97.349022145032	548.665045837869	870.797636588302	37.011897542847	587.222683719351	1079.169124914303	42.180630401260	579.027878731956	493.013478955944	178.817947410384	373.074195723633	545.983095717300	123.887456815556	296.731591248006	650.306400187339	126.089853891179	316.071616729920	720.946274702742	29.898817560210	299.548644649290	835.364547341788	1074.826457848964	154.072641198894	1053.632206181741	933.376273248794	133.163905540797	799.379354315988	1093.169714162692	726.038560913076	870.682823875889	841.241845082370	722.901722248043	
40	58.468642857143	891.686831519187	950.659114378778	302.440221138509	679.551981543064	1001.199443809052	463.545702188743	848.898205994775	1428.778799288387	274.901630761565	953.593627658657	1360.677906280958	435.821304992752	869.718823820711	1433.318124239044	610.521938632059	847.773971482705	1490.718462975104	426.508103912440	908.962937888867	939.368384744012	578.333349104660	965.308319375863	745.036580192792	549.271973546426	893.472985867670	631.912228657293	608.144676528667	974.804141476457	584.611397650360	527.271268695192	983.932107399315	492.515617466844	534.218930907433	935.826125070686	736.699991036650	330.059874607612	853.074474715418	621.779833140197	264.302891762884	941.674440245603	538.566230638366	321.460824637929	933.383857152135	450.776502821476	318.124043236511	860.783377396858	394.835367959998	315.280377045624	716.445309374585	361.559169813343	271.142342334443	693.490865204719	236.275711945529	330.157802535679	952.130783174302	403.908506392543	541.108041198654	879.851573773276	301.656293681979	602.437545466126	919.583981569566	205.854942017795	540.251803405117	781.877398132689	43.456522550359	512.049356219468	953.217176565170	97.220802021659	548.854185276749	864.374422830361	36.967459342284	587.378256884639	1072.788257205381	41.849177717547	579.238645431637	498.894483588041	194.328582722793	372.956423314365	548.687716342784	136.142668684294	296.660640304717	653.179741146697	131.836817401895	316.140330597550	716.920790377804	28.791248760816	299.545676226829	833.312318897558	1073.631588305205	157.750941988450	1044.975061282666	922.070962527191	136.040017640407	807.062729944604	1092.546043111519	729.535123214192	892.199213733704	844.958287210924	724.756571643258	
41	58.481428571429	890.775498271309	950.465083368225	305.010277164152	679.214925271104	1001.376978697524	466.258541649633	848.313201582634	1428.246233651872	276.087889470857	953.695497909492	1360.410868883786	436.714823799262	870.788712466363	1433.575272879733	611.648441007848	847.906533709409	1490.621642595523	427.596281299663	908.923129647151	939.430468204849	580.499279913709	964.160740369740	744.292601886299	551.862937210296	891.257610171107	631.527891825002	610.020456488987	972.346940391928	583.914429956572	529.161441242000	980.607454868140	491.694314917496	535.707271450297	940.081422699169	739.384974596884	332.528184907185	861.621049635079	622.831987448617	265.555697459896	952.407122096014	541.698091379520	323.126414474438	945.768752382625	452.962929734172	319.454423175210	872.086141879517	396.812846414072	316.316390788385	726.853499702117	367.384284470578	271.874896201030	700.861639246674	242.445522859693	330.536005760037	948.231220348805	403.230362090904	542.269101075568	875.260865367155	301.301373591469	603.287666244456	914.259221369409	205.439444021246	540.733888571735	775.466911804078	43.500496932841	512.169913208799	946.884911738393	97.094945059473	549.029777452062	857.933264134615	36.933324082523	587.524296892009	1066.385650824698	41.537728930508	579.437734909341	505.626912199965	208.853799755577	372.990246716981	552.521105691453	147.938817199003	296.696269735824	656.945811478715	137.823808439665	316.344920128820	714.256445298883	27.997042183391	299.502420350822	831.315017116805	1072.222085966459	161.379321143261	1035.395778078555	910.322392225024	138.844353047293	815.011089974603	1092.041276352250	732.912946735130	914.048466794283	849.751196752070	726.182272449834	
42	58.494214285714	889.530254096018	950.348064890597	307.492773682250	678.647182061254	1001.523283877981	468.855669893354	847.594390135135	1427.589196944312	277.097119556712	953.692907128701	1360.040553814037	437.418285874850	871.840687014306	1433.831748199885	612.587398899092	848.055212223662	1490.470607022505	428.444569324967	908.695965971440	939.412171386649	582.536511185894	962.932896166434	743.610821063700	554.185071451770	889.058716605199	631.128734164121	611.684465543170	969.908572002946	583.229599139530	530.833824871517	977.329121275074	490.875425281108	536.971415228122	943.913995390248	742.325134665355	334.995770518727	869.709419574565	624.323613254105	266.810123936980	962.529706378683	545.343687501444	324.900276693856	957.703393094323	455.738800361379	320.961525147169	883.155351121743	399.236508310018	317.501248972978	737.242123150322	373.039952302407	272.717372554863	708.695190280660	248.397722021176	331.091781993514	944.364784733059	402.563015412752	543.260546694394	870.696233218961	300.986809785927	604.032236015134	908.943487520001	205.043301194322	541.143290107047	769.047954965800	43.566509968567	512.294656060800	940.540309566514	96.982792642041	549.189493825322	851.485196374336	36.914069160403	587.661431342493	1059.970200071028	41.261005882115	579.625223524815	513.112135554837	221.737481506781	373.200306595514	557.565390153581	158.708497586227	296.848256698565	661.787687060598	143.769406085277	316.651465689702	713.501626511131	27.632321031151	299.398849077442	829.350419602480	1070.672883736725	164.950136264539	1024.849740815567	898.331435514209	141.611055073124	823.248653781627	1091.697110328637	736.112554912674	936.109811312947	855.689557160760	727.091562909526	
